<svg width="80" height="80" viewBox="0 0 80 80" fill="none" xmlns="http://www.w3.org/2000/svg">
<path fill-rule="evenodd" clip-rule="evenodd" d="M40.0007 3.3335C19.7507 3.3335 3.33398 19.7502 3.33398 40.0002C3.33398 60.2502 19.7507 76.6668 40.0007 76.6668C60.2507 76.6668 76.6673 60.2502 76.6673 40.0002C76.6673 19.7502 60.2507 3.3335 40.0007 3.3335ZM55.894 33.8002C56.1866 33.4656 56.4094 33.076 56.5493 32.6541C56.6891 32.2322 56.7432 31.7865 56.7082 31.3434C56.6733 30.9003 56.5501 30.4687 56.3459 30.0739C56.1417 29.6791 55.8606 29.3292 55.5191 29.0446C55.1777 28.7601 54.7828 28.5467 54.3576 28.417C53.9325 28.2874 53.4857 28.244 53.0436 28.2896C52.6015 28.3351 52.1729 28.4687 51.7831 28.6823C51.3934 28.8959 51.0503 29.1853 50.774 29.5335L36.4407 46.7302L29.024 39.3102C28.3953 38.703 27.5533 38.367 26.6793 38.3746C25.8053 38.3822 24.9693 38.7327 24.3513 39.3508C23.7332 39.9688 23.3827 40.8048 23.3751 41.6788C23.3675 42.5528 23.7035 43.3948 24.3107 44.0235L34.3107 54.0235C34.6382 54.3508 35.0303 54.6063 35.462 54.7737C35.8938 54.9411 36.3556 55.0167 36.8182 54.9957C37.2808 54.9747 37.7339 54.8575 38.1487 54.6517C38.5635 54.4458 38.9308 54.1558 39.2273 53.8002L55.894 33.8002Z" fill="#04AA6A"/>
</svg>
