<svg width="20" height="20" viewBox="0 0 20 20" fill="none" xmlns="http://www.w3.org/2000/svg">
<path d="M17.3661 19.8498L17.3661 19.85L7.84683 1.195C7.73568 0.915903 7.54328 0.676611 7.29456 0.508122C7.04583 0.339633 6.75225 0.24971 6.45183 0.25V0.150001L6.45174 0.150001L2.31933 0.150001V0.149704L2.31165 0.150296C2.0034 0.174048 1.70287 0.258388 1.42727 0.398486C1.15168 0.538584 0.906434 0.731686 0.705594 0.966726C0.504754 1.20177 0.352267 1.47413 0.256867 1.7682C0.161483 2.06223 0.125044 2.37219 0.149637 2.68032C0.296477 4.5853 0.894936 8.66195 3.3099 12.3711C5.72843 16.0858 9.96435 19.4242 17.3661 19.8498ZM7.93974 1.158C7.93969 1.15788 7.93964 1.15777 7.9396 1.15765L19.8493 13.5407L19.7493 13.54H19.8493V13.5404C19.8515 13.2228 19.7591 12.9118 19.584 12.6468C19.4087 12.3818 19.1585 12.175 18.8653 12.0527L18.864 12.0522L16.0381 10.9203C16.0378 10.9202 16.0376 10.9201 16.0373 10.92C15.7479 10.7985 15.4292 10.7647 15.1207 10.823C14.812 10.8813 14.5273 11.0292 14.3021 11.2483L14.3014 11.249L12.711 12.8248C11.3334 12.568 10.0657 11.8993 9.07556 10.9066C8.08539 9.91382 7.42008 8.64425 7.16695 7.26596L8.7276 5.69066C8.72767 5.69059 8.72774 5.69051 8.72781 5.69044C8.94921 5.46861 9.10059 5.18664 9.16315 4.87953C9.22573 4.57232 9.19668 4.25349 9.0796 3.96266L9.07947 3.96235L7.93974 1.158ZM17.4605 18.1502L17.46 18.1502C10.917 17.7769 7.10547 14.9802 4.88343 11.7323C2.65916 8.48107 2.02165 4.76853 1.84933 2.55612V2.5C1.84933 2.32761 1.91781 2.16228 2.03971 2.04038C2.16161 1.91848 2.32694 1.85 2.49933 1.85H6.3915L7.46723 4.55367L5.38325 6.65966L5.34908 6.6942L5.3551 6.7424L5.39975 7.09961C5.40045 7.1089 5.40186 7.11977 5.40291 7.12782C5.40491 7.14315 5.40792 7.16428 5.41206 7.19079C5.42035 7.24386 5.43328 7.31915 5.45201 7.41368C5.48947 7.60275 5.5502 7.86924 5.64357 8.18933C5.83022 8.82926 6.14775 9.68499 6.67153 10.5649C7.72022 12.3266 9.59687 14.1858 12.8969 14.5992L12.8969 14.5992L13.2569 14.6442L13.3052 14.6503L13.3398 14.616L15.4457 12.5248L18.1493 13.6077V17.542C18.1441 17.6264 18.1223 17.709 18.0854 17.7852C18.0481 17.8621 17.9959 17.931 17.9319 17.9877C17.8679 18.0445 17.7933 18.0881 17.7124 18.116C17.6315 18.1438 17.5459 18.1555 17.4605 18.1502Z" fill="#888FA2" stroke="#888FA2" stroke-width="0.2"/>
</svg>
