<svg width="16" height="16" viewBox="0 0 16 16" fill="none" xmlns="http://www.w3.org/2000/svg">
<path d="M12.9101 14.6L12.9101 14.5998C7.96462 14.3154 5.1312 12.0839 3.5133 9.59894C1.8989 7.11937 1.49922 4.39512 1.40115 3.12269C1.38444 2.91295 1.40925 2.70198 1.47417 2.50185C1.53913 2.30163 1.64295 2.11619 1.77969 1.95616C1.91643 1.79614 2.08341 1.66466 2.27105 1.56928C2.45869 1.47389 2.6633 1.41647 2.87317 1.4003L2.88086 1.3997V1.4L5.63576 1.4L5.63586 1.4V1.5C5.83614 1.49981 6.03186 1.55976 6.19767 1.67208C6.36349 1.78441 6.49175 1.94394 6.56586 2.13L12.9101 14.6ZM12.9101 14.6H12.9159H13.0009C13.4252 14.6 13.8322 14.4314 14.1322 14.1314C14.4323 13.8313 14.6009 13.4243 14.6009 13V10.3603M12.9101 14.6L6.65862 2.09264C6.65867 2.09276 6.65871 2.09288 6.65876 2.093L7.4185 3.96235L7.41862 3.96266C7.49912 4.16261 7.51909 4.3818 7.47607 4.59301C7.43305 4.80417 7.32896 4.99805 7.17671 5.15057C7.17668 5.1506 7.17665 5.15063 7.17662 5.15066L6.14856 6.18837C6.31844 7.09401 6.75736 7.92789 7.40861 8.58086C8.05982 9.23379 8.89248 9.67489 9.7976 9.84718L10.8455 8.80896L10.8461 8.80832C11.001 8.65771 11.1967 8.55601 11.4089 8.51591C11.6209 8.47586 11.8399 8.49902 12.0388 8.58248L13.923 9.33717L13.9244 9.3377L13.9244 9.33771C14.1259 9.42179 14.2979 9.56399 14.4184 9.74618C14.5388 9.92825 14.6023 10.142 14.6009 10.3603M14.6009 10.3603C14.6009 10.3604 14.6009 10.3606 14.6009 10.3607L14.5009 10.36M14.6009 10.3603V10.36H14.5009M14.5009 10.36V13C14.5009 13.3978 14.3428 13.7794 14.0615 14.0607C13.7802 14.342 13.3987 14.5 13.0009 14.5H12.9159M14.5009 10.36C14.5023 10.1614 14.4445 9.96696 14.335 9.80134C14.2255 9.63571 14.0691 9.50644 13.8859 9.43L12.0009 8.675C11.8199 8.59887 11.6204 8.57771 11.4275 8.61417C11.2346 8.65063 11.0566 8.74308 10.9159 8.88L12.9159 14.5M12.9159 14.5C3.09086 13.935 1.69586 5.645 1.50086 3.115C1.48514 2.91829 1.5084 2.72041 1.56929 2.53271C1.63019 2.345 1.72752 2.17115 1.85571 2.02113C1.98391 1.8711 2.14045 1.74784 2.31636 1.65842C2.49227 1.569 2.6841 1.51516 2.88086 1.5L12.9159 14.5ZM12.977 13.4002L12.9766 13.4002C8.62475 13.1519 6.09325 11.2927 4.61777 9.13604C3.14005 6.97607 2.71567 4.50852 2.60086 3.03611V3C2.60086 2.89391 2.643 2.79217 2.71801 2.71716C2.79303 2.64214 2.89477 2.6 3.00086 2.6H5.57302L6.27375 4.36117L4.89978 5.74966L4.8656 5.7842L4.87163 5.8324L4.90131 6.06989C4.90188 6.07697 4.90283 6.08424 4.90341 6.08868L4.90352 6.08953C4.9049 6.10008 4.90695 6.11444 4.90974 6.13234C4.91534 6.16818 4.92404 6.21881 4.93661 6.28227C4.96175 6.40918 5.00247 6.5878 5.06501 6.80222C5.19003 7.23082 5.40271 7.80405 5.75368 8.39365C6.45675 9.57476 7.7159 10.822 9.92843 11.0992L9.92845 11.0992L10.1685 11.1292L10.2168 11.1353L10.2513 11.101L11.6397 9.72227L13.4009 10.4277V13.0269C13.3975 13.0785 13.3842 13.129 13.3616 13.1756C13.3386 13.2229 13.3065 13.2653 13.2671 13.3002C13.2277 13.3352 13.1818 13.362 13.132 13.3791C13.0822 13.3963 13.0296 13.4034 12.977 13.4002Z" fill="#888FA2" stroke="#888FA2" stroke-width="0.2"/>
</svg>
