<svg width="20" height="20" viewBox="0 0 20 20" fill="none" xmlns="http://www.w3.org/2000/svg">
<path d="M15.8324 18.3327H4.16569C3.72366 18.3327 3.29974 18.1571 2.98718 17.8445C2.67462 17.532 2.49902 17.108 2.49902 16.666V4.99935C2.49902 4.55732 2.67462 4.1334 2.98718 3.82084C3.29974 3.50828 3.72366 3.33268 4.16569 3.33268H5.83236V1.66602H7.49902V3.33268H12.499V1.66602H14.1657V3.33268H15.8324C16.2744 3.33268 16.6983 3.50828 17.0109 3.82084C17.3234 4.1334 17.499 4.55732 17.499 4.99935V16.666C17.499 17.108 17.3234 17.532 17.0109 17.8445C16.6983 18.1571 16.2744 18.3327 15.8324 18.3327ZM4.16569 8.33268V16.666H15.8324V8.33268H4.16569ZM4.16569 4.99935V6.66602H15.8324V4.99935H4.16569Z" fill="#888FA2"/>
</svg>
