<svg width="24" height="24" viewBox="0 0 24 24" fill="none" xmlns="http://www.w3.org/2000/svg">
<path d="M6.99683 5.22238L7 5.18268V5.14286C7 4.57884 7.15061 3.98047 7.40925 3.55649C7.65821 3.14837 7.93188 3 8.22222 3C8.66732 3 9.17866 3.31724 9.63861 4.09723C10.0855 4.85512 10.3333 5.82275 10.3333 6.57143C10.3333 7.13544 10.1827 7.73381 9.92408 8.1578C9.67512 8.56592 9.40145 8.71429 9.11111 8.71429C8.56413 8.71429 8.0228 8.36184 7.58361 7.61705C7.14606 6.87505 6.93989 5.93622 6.99683 5.22238ZM16.8519 5.28571C16.8519 5.9519 16.61 6.88199 16.1616 7.62743C15.7008 8.39355 15.1889 8.71429 14.7407 8.71429C14.4504 8.71429 14.1767 8.56592 13.9278 8.1578C13.6691 7.73381 13.5185 7.13544 13.5185 6.57143C13.5185 5.90525 13.7604 4.97515 14.2088 4.22971C14.6696 3.46359 15.1815 3.14286 15.6296 3.14286C15.92 3.14286 16.1936 3.29123 16.4426 3.69934C16.7012 4.12333 16.8519 4.7217 16.8519 5.28571ZM17.8148 12.7143C17.8148 11.9932 18.0841 11.075 18.5583 10.3521C19.0419 9.61513 19.5898 9.28571 20.0741 9.28571C20.2609 9.28571 20.4635 9.37534 20.6589 9.65797C20.8625 9.95242 21 10.391 21 10.8571C21 11.5782 20.7308 12.4964 20.2565 13.2193C19.7729 13.9563 19.225 14.2857 18.7407 14.2857C18.4537 14.2857 18.2694 14.1717 18.1151 13.9354C17.9354 13.6603 17.8148 13.2238 17.8148 12.7143ZM3.92593 9.28571C4.32365 9.28571 4.87563 9.59857 5.39424 10.3643C5.8932 11.1011 6.18519 12.0162 6.18519 12.7143C6.18519 13.2238 6.06457 13.6603 5.88491 13.9354C5.73064 14.1717 5.54635 14.2857 5.25926 14.2857C4.86154 14.2857 4.30955 13.9729 3.79095 13.2071C3.29199 12.4704 3 11.5552 3 10.8571C3 10.3476 3.12062 9.91116 3.30028 9.63601C3.45454 9.39975 3.63884 9.28571 3.92593 9.28571ZM5.96296 20.1429C5.96296 18.9262 6.78127 17.2278 8.07946 15.7729C8.71058 15.0657 9.41321 14.4653 10.1046 14.0482C10.8058 13.6251 11.431 13.4286 11.9259 13.4286C12.4209 13.4286 13.046 13.6251 13.7473 14.0482C14.4386 14.4653 15.1413 15.0657 15.7724 15.7729C17.0706 17.2278 17.8889 18.9262 17.8889 20.1429C17.8889 20.3916 17.8373 20.5247 17.7967 20.5948C17.7569 20.6635 17.6958 20.7268 17.5879 20.7868C17.3362 20.9269 16.9192 21 16.3704 21C15.7735 21 15.2027 20.7923 14.4605 20.4987C14.4265 20.4853 14.392 20.4715 14.3569 20.4576C13.6942 20.1944 12.8451 19.8571 11.9259 19.8571C10.9426 19.8571 10.0635 20.189 9.35654 20.4558C9.32362 20.4683 9.29108 20.4805 9.25892 20.4926C8.48591 20.7835 7.8682 21 7.18519 21C6.68387 21 6.36894 20.9042 6.20381 20.7884C6.10146 20.7166 5.96296 20.5807 5.96296 20.1429Z" stroke="#888FA2" stroke-width="2"/>
</svg>
