<svg width="24" height="24" viewBox="0 0 24 24" fill="none" xmlns="http://www.w3.org/2000/svg">
<path d="M19 4.00049H5C4.20435 4.00049 3.44129 4.31656 2.87868 4.87917C2.31607 5.44178 2 6.20484 2 7.00049V17.0005C2 17.7961 2.31607 18.5592 2.87868 19.1218C3.44129 19.6844 4.20435 20.0005 5 20.0005H19C19.7956 20.0005 20.5587 19.6844 21.1213 19.1218C21.6839 18.5592 22 17.7961 22 17.0005V7.00049C22 6.20484 21.6839 5.44178 21.1213 4.87917C20.5587 4.31656 19.7956 4.00049 19 4.00049ZM18.33 6.00049L12 10.7505L5.67 6.00049H18.33ZM19 18.0005H5C4.73478 18.0005 4.48043 17.8951 4.29289 17.7076C4.10536 17.5201 4 17.2657 4 17.0005V7.25049L11.4 12.8005C11.5731 12.9303 11.7836 13.0005 12 13.0005C12.2164 13.0005 12.4269 12.9303 12.6 12.8005L20 7.25049V17.0005C20 17.2657 19.8946 17.5201 19.7071 17.7076C19.5196 17.8951 19.2652 18.0005 19 18.0005Z" fill="#888FA2"/>
</svg>
