<svg width="24" height="24" viewBox="0 0 24 24" fill="none" xmlns="http://www.w3.org/2000/svg">
<path d="M17.4 21.9996C13.3173 21.9943 9.40331 20.3701 6.5164 17.4832C3.62949 14.5963 2.00529 10.6823 2 6.59963C2 5.37963 2.48464 4.2096 3.34731 3.34693C4.20998 2.48427 5.38 1.99963 6.6 1.99963C6.85834 1.99766 7.11625 2.0211 7.37 2.06963C7.61531 2.10593 7.85647 2.16622 8.09 2.24963C8.25425 2.30726 8.40061 2.40676 8.51461 2.5383C8.62861 2.66984 8.7063 2.82885 8.74 2.99963L10.11 8.99963C10.1469 9.16249 10.1425 9.33201 10.0971 9.49271C10.0516 9.65341 9.96671 9.80018 9.85 9.91963C9.72 10.0596 9.71 10.0696 8.48 10.7096C9.46499 12.8705 11.1932 14.6058 13.35 15.5996C14 14.3596 14.01 14.3496 14.15 14.2196C14.2694 14.1029 14.4162 14.018 14.5769 13.9726C14.7376 13.9271 14.9071 13.9227 15.07 13.9596L21.07 15.3296C21.2353 15.368 21.3881 15.4478 21.5141 15.5615C21.64 15.6752 21.735 15.8191 21.79 15.9796C21.8744 16.217 21.938 16.4612 21.98 16.7096C22.0202 16.961 22.0403 17.2151 22.04 17.4696C22.0216 18.6844 21.5233 19.8426 20.654 20.6913C19.7847 21.54 18.6149 22.0103 17.4 21.9996ZM6.6 3.99963C5.91125 4.00226 5.25146 4.27703 4.76443 4.76406C4.27741 5.25108 4.00263 5.91087 4 6.59963C4.00265 10.1527 5.41528 13.5595 7.92769 16.0719C10.4401 18.5843 13.8469 19.997 17.4 19.9996C18.0888 19.997 18.7485 19.7222 19.2356 19.2352C19.7226 18.7482 19.9974 18.0884 20 17.3996V17.0696L15.36 15.9996L15.07 16.5496C14.62 17.4196 14.29 18.0496 13.45 17.7096C11.7929 17.1165 10.2887 16.1617 9.04673 14.9145C7.80477 13.6674 6.85622 12.1592 6.27 10.4996C5.91 9.71963 6.59 9.35963 7.45 8.90963L8 8.63963L6.93 3.99963H6.6Z" fill="#888FA2"/>
</svg>
