<svg width="28" height="32" viewBox="0 0 28 32" fill="none" xmlns="http://www.w3.org/2000/svg">
<g clip-path="url(#clip0_1184_45117)">
<path d="M26.7768 29.2849H25.5714V1.70175C25.5714 0.899959 24.9239 0.25 24.125 0.25H3.875C3.07615 0.25 2.42857 0.899959 2.42857 1.70175V29.2849H1.22321C0.823819 29.2849 0.5 29.6099 0.5 30.0108V31.2206H27.5V30.0108C27.5 29.6099 27.1762 29.2849 26.7768 29.2849ZM8.21429 4.8472C8.21429 4.44633 8.53811 4.12132 8.9375 4.12132H11.3482C11.7476 4.12132 12.0714 4.44633 12.0714 4.8472V7.26677C12.0714 7.66764 11.7476 7.99265 11.3482 7.99265H8.9375C8.53811 7.99265 8.21429 7.66764 8.21429 7.26677V4.8472ZM8.21429 10.6542C8.21429 10.2533 8.53811 9.92831 8.9375 9.92831H11.3482C11.7476 9.92831 12.0714 10.2533 12.0714 10.6542V13.0738C12.0714 13.4746 11.7476 13.7996 11.3482 13.7996H8.9375C8.53811 13.7996 8.21429 13.4746 8.21429 13.0738V10.6542ZM11.3482 19.6066H8.9375C8.53811 19.6066 8.21429 19.2816 8.21429 18.8807V16.4612C8.21429 16.0603 8.53811 15.7353 8.9375 15.7353H11.3482C11.7476 15.7353 12.0714 16.0603 12.0714 16.4612V18.8807C12.0714 19.2816 11.7476 19.6066 11.3482 19.6066ZM15.9286 29.2849H12.0714V24.2038C12.0714 23.803 12.3952 23.4779 12.7946 23.4779H15.2054C15.6048 23.4779 15.9286 23.803 15.9286 24.2038V29.2849ZM19.7857 18.8807C19.7857 19.2816 19.4619 19.6066 19.0625 19.6066H16.6518C16.2524 19.6066 15.9286 19.2816 15.9286 18.8807V16.4612C15.9286 16.0603 16.2524 15.7353 16.6518 15.7353H19.0625C19.4619 15.7353 19.7857 16.0603 19.7857 16.4612V18.8807ZM19.7857 13.0738C19.7857 13.4746 19.4619 13.7996 19.0625 13.7996H16.6518C16.2524 13.7996 15.9286 13.4746 15.9286 13.0738V10.6542C15.9286 10.2533 16.2524 9.92831 16.6518 9.92831H19.0625C19.4619 9.92831 19.7857 10.2533 19.7857 10.6542V13.0738ZM19.7857 7.26677C19.7857 7.66764 19.4619 7.99265 19.0625 7.99265H16.6518C16.2524 7.99265 15.9286 7.66764 15.9286 7.26677V4.8472C15.9286 4.44633 16.2524 4.12132 16.6518 4.12132H19.0625C19.4619 4.12132 19.7857 4.44633 19.7857 4.8472V7.26677Z" fill="#888FA2"/>
</g>
<defs>
<clipPath id="clip0_1184_45117">
<rect width="27" height="30.9706" fill="white" transform="translate(0.5 0.25)"/>
</clipPath>
</defs>
</svg>
