<svg width="38" height="38" viewBox="0 0 38 38" fill="none" xmlns="http://www.w3.org/2000/svg">
<path d="M14.3125 15.875H15.875C16.2894 15.875 16.6868 15.7104 16.9799 15.4174C17.2729 15.1243 17.4375 14.7269 17.4375 14.3125C17.4375 13.8981 17.2729 13.5007 16.9799 13.2076C16.6868 12.9146 16.2894 12.75 15.875 12.75H14.3125C13.8981 12.75 13.5007 12.9146 13.2076 13.2076C12.9146 13.5007 12.75 13.8981 12.75 14.3125C12.75 14.7269 12.9146 15.1243 13.2076 15.4174C13.5007 15.7104 13.8981 15.875 14.3125 15.875ZM14.3125 19C13.8981 19 13.5007 19.1646 13.2076 19.4576C12.9146 19.7507 12.75 20.1481 12.75 20.5625C12.75 20.9769 12.9146 21.3743 13.2076 21.6674C13.5007 21.9604 13.8981 22.125 14.3125 22.125H23.6875C24.1019 22.125 24.4993 21.9604 24.7924 21.6674C25.0854 21.3743 25.25 20.9769 25.25 20.5625C25.25 20.1481 25.0854 19.7507 24.7924 19.4576C24.4993 19.1646 24.1019 19 23.6875 19H14.3125ZM31.5 14.2187C31.4837 14.0752 31.4523 13.9338 31.4062 13.7969V13.6562C31.3311 13.4956 31.2309 13.3479 31.1094 13.2188L21.7344 3.84375C21.6052 3.72221 21.4575 3.622 21.2969 3.54687C21.2502 3.54025 21.2029 3.54025 21.1562 3.54687C20.9975 3.45585 20.8222 3.39741 20.6406 3.375H11.1875C9.9443 3.375 8.75201 3.86886 7.87294 4.74794C6.99386 5.62701 6.5 6.8193 6.5 8.0625V29.9375C6.5 31.1807 6.99386 32.373 7.87294 33.2521C8.75201 34.1311 9.9443 34.625 11.1875 34.625H26.8125C28.0557 34.625 29.248 34.1311 30.1271 33.2521C31.0061 32.373 31.5 31.1807 31.5 29.9375V14.2187ZM22.125 8.70312L26.1719 12.75H23.6875C23.2731 12.75 22.8757 12.5854 22.5826 12.2924C22.2896 11.9993 22.125 11.6019 22.125 11.1875V8.70312ZM28.375 29.9375C28.375 30.3519 28.2104 30.7493 27.9174 31.0424C27.6243 31.3354 27.2269 31.5 26.8125 31.5H11.1875C10.7731 31.5 10.3757 31.3354 10.0826 31.0424C9.78962 30.7493 9.625 30.3519 9.625 29.9375V8.0625C9.625 7.6481 9.78962 7.25067 10.0826 6.95765C10.3757 6.66462 10.7731 6.5 11.1875 6.5H19V11.1875C19 12.4307 19.4939 13.623 20.3729 14.5021C21.252 15.3811 22.4443 15.875 23.6875 15.875H28.375V29.9375ZM23.6875 25.25H14.3125C13.8981 25.25 13.5007 25.4146 13.2076 25.7076C12.9146 26.0007 12.75 26.3981 12.75 26.8125C12.75 27.2269 12.9146 27.6243 13.2076 27.9174C13.5007 28.2104 13.8981 28.375 14.3125 28.375H23.6875C24.1019 28.375 24.4993 28.2104 24.7924 27.9174C25.0854 27.6243 25.25 27.2269 25.25 26.8125C25.25 26.3981 25.0854 26.0007 24.7924 25.7076C24.4993 25.4146 24.1019 25.25 23.6875 25.25Z" fill="#888FA2"/>
</svg>
