<svg width="24" height="24" viewBox="0 0 24 24" fill="none" xmlns="http://www.w3.org/2000/svg">
<path d="M10.5659 3.09205C10.6979 2.82421 10.9023 2.59869 11.1559 2.44099C11.4096 2.28329 11.7022 2.19971 12.0009 2.19971C12.2995 2.19971 12.5922 2.28329 12.8458 2.44099C13.0994 2.59869 13.3038 2.82421 13.4359 3.09205L15.6599 7.59605L20.6319 8.31805C20.9274 8.36097 21.2051 8.48576 21.4334 8.67831C21.6617 8.87085 21.8316 9.12346 21.9238 9.40754C22.016 9.69162 22.0268 9.99584 21.9551 10.2858C21.8834 10.5757 21.7319 10.8397 21.5179 11.0481L17.9199 14.5541L18.7699 19.5061C18.8204 19.8002 18.7877 20.1026 18.6754 20.3792C18.5631 20.6557 18.3757 20.8953 18.1343 21.0709C17.893 21.2465 17.6073 21.3511 17.3097 21.3728C17.012 21.3946 16.7142 21.3327 16.4499 21.1941L11.9999 18.8541L7.55186 21.1941C7.28754 21.3327 6.98972 21.3946 6.69205 21.3728C6.39438 21.3511 6.10874 21.2465 5.8674 21.0709C5.62605 20.8953 5.43864 20.6557 5.32633 20.3792C5.21402 20.1026 5.1813 19.8002 5.23186 19.5061L6.07986 14.5541L2.48186 11.0481C2.26779 10.8396 2.11636 10.5754 2.04472 10.2853C1.97308 9.99525 1.98409 9.69092 2.07652 9.40678C2.16894 9.12265 2.33907 8.87007 2.56765 8.67765C2.79623 8.48523 3.07413 8.36066 3.36986 8.31805L8.34186 7.59805L10.5639 3.09205H10.5659ZM12.0019 4.70405L10.0419 8.67005C9.9274 8.90247 9.75821 9.10362 9.54884 9.25621C9.33946 9.4088 9.09617 9.50826 8.83986 9.54605L4.45986 10.1821L7.62986 13.2701C7.81556 13.4511 7.95446 13.6746 8.0346 13.9213C8.11473 14.168 8.1337 14.4304 8.08986 14.6861L7.34186 19.0461L11.2579 16.9861C11.4873 16.8655 11.7427 16.8026 12.0019 16.8026C12.2611 16.8026 12.5164 16.8655 12.7459 16.9861L16.6619 19.0461L15.9139 14.6861C15.87 14.4304 15.889 14.168 15.9691 13.9213C16.0493 13.6746 16.1882 13.4511 16.3739 13.2701L19.5419 10.1801L15.1639 9.54405C14.9072 9.50657 14.6635 9.40724 14.4538 9.25464C14.244 9.10204 14.0745 8.90072 13.9599 8.66805L11.9999 4.70405H12.0019Z" fill="#888FA2"/>
</svg>
