<svg width="16" height="16" viewBox="0 0 16 16" fill="none" xmlns="http://www.w3.org/2000/svg">
<path d="M7.27248 1.85375C7.60421 1.67007 7.99319 1.61884 8.36117 1.71037C8.72914 1.8019 9.04879 2.0294 9.25581 2.34709L9.31115 2.43909L14.4838 11.7784C14.6059 11.9991 14.6704 12.2471 14.6713 12.4993C14.6722 12.7516 14.6095 13 14.4889 13.2215C14.3684 13.4431 14.1939 13.6307 13.9816 13.767C13.7693 13.9032 13.5261 13.9837 13.2745 14.0011L13.1718 14.0051H2.82781C2.57578 14.0052 2.32779 13.9418 2.10673 13.8208C1.88567 13.6997 1.69867 13.5249 1.56301 13.3125C1.42734 13.1001 1.34738 12.857 1.33051 12.6055C1.31364 12.354 1.3604 12.1024 1.46648 11.8738L1.51448 11.7784L6.68648 2.43909C6.82301 2.19285 7.02608 1.99 7.27248 1.85375ZM7.99981 10.6671C7.91062 10.6643 7.82178 10.6794 7.73855 10.7116C7.65532 10.7438 7.57941 10.7923 7.51532 10.8544C7.45123 10.9165 7.40028 10.9909 7.36548 11.073C7.33068 11.1552 7.31274 11.2435 7.31274 11.3328C7.31274 11.422 7.33068 11.5103 7.36548 11.5925C7.40028 11.6746 7.45123 11.749 7.51532 11.8111C7.57941 11.8732 7.65532 11.9217 7.73855 11.9539C7.82178 11.9861 7.91062 12.0012 7.99981 11.9984C8.17271 11.9929 8.3367 11.9204 8.45707 11.7962C8.57744 11.6719 8.64474 11.5057 8.64474 11.3328C8.64474 11.1598 8.57744 10.9936 8.45707 10.8693C8.3367 10.7451 8.17271 10.6726 7.99981 10.6671ZM7.99848 5.33109C7.83509 5.33113 7.6774 5.39117 7.55536 5.49981C7.43332 5.60846 7.35543 5.75813 7.33648 5.92042L7.33315 5.99776V9.33242L7.33781 9.41042C7.35644 9.57303 7.43424 9.7231 7.55638 9.83205C7.67852 9.94099 7.83648 10.0012 8.00015 10.0012C8.16382 10.0012 8.32177 9.94099 8.44391 9.83205C8.56605 9.7231 8.64385 9.57303 8.66248 9.41042L8.66648 9.33242V5.99776L8.66181 5.91975C8.64269 5.75747 8.56464 5.60786 8.44248 5.49934C8.32032 5.39082 8.16255 5.33095 7.99915 5.33109H7.99848Z" fill="#88898A"/>
</svg>
