<svg width="64" height="64" viewBox="0 0 64 64" fill="none" xmlns="http://www.w3.org/2000/svg">
<g clip-path="url(#clip0_1184_45165)">
<path d="M41.6357 8.40421L42.6527 15.6412L60.2317 20.3512C61.4765 20.6847 62.5445 21.486 63.2128 22.5879C63.8811 23.6898 64.0982 25.0072 63.8187 26.2652L63.7677 26.4752L57.0377 51.5892C56.7879 52.5214 56.2738 53.3615 55.5573 54.008C54.8408 54.6546 53.9526 55.0801 52.9997 55.2332V56.0002C52.9997 57.2887 52.5022 58.5274 51.6111 59.458C50.72 60.3886 49.504 60.9393 48.2167 60.9952L47.9997 61.0002H15.9997C14.7113 61.0001 13.4726 60.5027 12.542 59.6115C11.6113 58.7204 11.0606 57.5045 11.0047 56.2172L10.9997 56.0002V44.0132L9.30973 44.2522C8.0337 44.4314 6.73775 44.1111 5.69216 43.358C4.64658 42.6049 3.93209 41.4773 3.69773 40.2102L3.66373 39.9962L0.0447303 14.2502C-0.134508 12.9743 0.185693 11.6785 0.938563 10.6329C1.69143 9.58737 2.81885 8.8728 4.08573 8.63821L4.30073 8.60321L35.9887 4.14921C36.639 4.05786 37.3008 4.09548 37.9365 4.25993C38.5722 4.42438 39.1693 4.71243 39.6937 5.10764C40.2181 5.50285 40.6595 5.99747 40.9927 6.56327C41.3259 7.12907 41.5444 7.75496 41.6357 8.40521V8.40421ZM21.1457 47.7772L21.0057 47.9082L12.9997 55.9142V56.0002C12.9997 56.7654 13.2921 57.5017 13.817 58.0585C14.342 58.6152 15.0598 58.9503 15.8237 58.9952L15.9997 59.0002H37.4197L25.1487 47.8122C24.6028 47.3143 23.8923 47.0354 23.1534 47.0289C22.4146 47.0225 21.6993 47.2889 21.1447 47.7772H21.1457ZM37.6467 37.8742L37.5077 38.0102L28.0907 47.7882L40.3867 59.0002H47.9997C48.7649 59.0002 49.5012 58.7079 50.058 58.1829C50.6147 57.658 50.9498 56.9401 50.9947 56.1762L50.9997 56.0002V46.4392L41.6997 37.8832C41.1476 37.3752 40.4252 37.0924 39.675 37.0908C38.9247 37.0891 38.2011 37.3686 37.6467 37.8742ZM52.9997 34.6142V53.1902C53.4754 53.0598 53.9117 52.8142 54.2699 52.4751C54.6281 52.1361 54.8973 51.714 55.0537 51.2462L55.1057 51.0722L57.5807 41.8372L52.9997 34.6142ZM47.9997 27.0002H31.9907C31.7077 27.0312 31.4197 27.0322 31.1287 27.0002H15.9997C15.2345 27.0002 14.4982 27.2925 13.9415 27.8175C13.3847 28.3424 13.0496 29.0603 13.0047 29.8242L12.9997 30.0002V53.0842L19.5917 46.4942C20.4717 45.6142 21.6481 45.0939 22.8912 45.0351C24.1343 44.9763 25.3547 45.3832 26.3137 46.1762L26.4957 46.3352L26.6127 46.4402L36.0677 36.6232C36.9443 35.7127 38.1332 35.168 39.3952 35.0986C40.6572 35.0292 41.8986 35.4403 42.8697 36.2492L43.0537 36.4112L50.9997 43.7212V30.0002C50.9998 29.235 50.7074 28.4987 50.1824 27.9419C49.6575 27.3852 48.9396 27.0501 48.1757 27.0052L47.9997 27.0002ZM10.9997 32.5482L5.63673 39.6662L5.64373 39.7182C5.75453 40.506 6.17371 41.2175 6.80906 41.6963C7.44442 42.175 8.24392 42.3819 9.03173 42.2712L10.9997 41.9942V32.5482ZM25.1797 15.9542L25.1297 16.1232L22.7497 24.9992H28.0857C27.7399 24.3908 27.5597 23.7022 27.5633 23.0024C27.5668 22.3025 27.7539 21.6159 28.1059 21.0109C28.4579 20.406 28.9624 19.904 29.5691 19.5551C30.1758 19.2062 30.8634 19.0226 31.5632 19.0226C32.2631 19.0226 32.9507 19.2062 33.5574 19.5551C34.1641 19.904 34.6686 20.406 35.0206 21.0109C35.3725 21.6159 35.5596 22.3025 35.5632 23.0024C35.5667 23.7022 35.3866 24.3908 35.0407 24.9992L47.9997 25.0012C49.2882 25.0013 50.5269 25.4987 51.4575 26.3899C52.3881 27.281 52.9388 28.497 52.9947 29.7842L52.9997 30.0002V30.8802L58.2837 39.2112L61.8357 25.9582C62.0338 25.219 61.942 24.432 61.5789 23.7584C61.2159 23.0847 60.6091 22.5752 59.8827 22.3342L59.7137 22.2842L28.8037 14.0002C28.0647 13.8024 27.278 13.8944 26.6045 14.2574C25.931 14.6205 25.4217 15.2271 25.1807 15.9532L25.1797 15.9542ZM20.9997 31.0002C22.0606 31.0002 23.078 31.4216 23.8282 32.1718C24.5783 32.9219 24.9997 33.9393 24.9997 35.0002C24.9997 36.0611 24.5783 37.0785 23.8282 37.8286C23.078 38.5788 22.0606 39.0002 20.9997 39.0002C19.9389 39.0002 18.9214 38.5788 18.1713 37.8286C17.4212 37.0785 16.9997 36.0611 16.9997 35.0002C16.9997 33.9393 17.4212 32.9219 18.1713 32.1718C18.9214 31.4216 19.9389 31.0002 20.9997 31.0002ZM20.9997 33.0002C20.4693 33.0002 19.9606 33.2109 19.5855 33.586C19.2104 33.9611 18.9997 34.4698 18.9997 35.0002C18.9997 35.5306 19.2104 36.0393 19.5855 36.4144C19.9606 36.7895 20.4693 37.0002 20.9997 37.0002C21.5302 37.0002 22.0389 36.7895 22.4139 36.4144C22.789 36.0393 22.9997 35.5306 22.9997 35.0002C22.9997 34.4698 22.789 33.9611 22.4139 33.586C22.0389 33.2109 21.5302 33.0002 20.9997 33.0002ZM36.4427 6.11021L36.2677 6.12921L4.57773 10.5822C3.81999 10.6889 3.13164 11.081 2.65353 11.6785C2.17541 12.2759 1.94368 13.0335 2.00573 13.7962L2.02573 13.9712L5.24273 36.8652L11.0757 29.1252C11.2752 28.0057 11.8501 26.9876 12.7057 26.2386C13.5614 25.4897 14.6467 25.0546 15.7827 25.0052L15.9997 25.0002H20.6797L23.1987 15.6052C23.5323 14.3606 24.3334 13.2928 25.435 12.6245C26.5367 11.9562 27.8538 11.739 29.1117 12.0182L29.3217 12.0692L40.5537 15.0792L39.6557 8.68221C39.5493 7.92447 39.1574 7.23603 38.5601 6.75774C37.9629 6.27944 37.2054 6.04744 36.4427 6.10921V6.11021ZM29.6317 22.5052C29.5588 22.7777 29.5442 23.0624 29.5891 23.3409C29.634 23.6194 29.7373 23.8852 29.8922 24.1209C30.047 24.3566 30.25 24.5569 30.4878 24.7086C30.7255 24.8603 30.9927 24.96 31.2717 25.0012H31.8647C32.221 24.9469 32.556 24.7973 32.8342 24.5683C33.1125 24.3393 33.3237 24.0393 33.4455 23.7001C33.5673 23.3609 33.5953 22.9951 33.5263 22.6414C33.4574 22.2877 33.2941 21.9592 33.0538 21.6906C32.8135 21.422 32.5051 21.2233 32.1612 21.1155C31.8173 21.0078 31.4507 20.995 31.1001 21.0784C30.7495 21.1619 30.428 21.3385 30.1695 21.5897C29.911 21.8408 29.7252 22.1572 29.6317 22.5052ZM9.99973 13.0002C11.0606 13.0002 12.078 13.4216 12.8282 14.1718C13.5783 14.9219 13.9997 15.9393 13.9997 17.0002C13.9997 18.0611 13.5783 19.0785 12.8282 19.8286C12.078 20.5788 11.0606 21.0002 9.99973 21.0002C8.93886 21.0002 7.92145 20.5788 7.1713 19.8286C6.42116 19.0785 5.99973 18.0611 5.99973 17.0002C5.99973 15.9393 6.42116 14.9219 7.1713 14.1718C7.92145 13.4216 8.93886 13.0002 9.99973 13.0002ZM9.99973 15.0002C9.4693 15.0002 8.96059 15.2109 8.58552 15.586C8.21044 15.9611 7.99973 16.4698 7.99973 17.0002C7.99973 17.5306 8.21044 18.0393 8.58552 18.4144C8.96059 18.7895 9.4693 19.0002 9.99973 19.0002C10.5302 19.0002 11.0389 18.7895 11.4139 18.4144C11.789 18.0393 11.9997 17.5306 11.9997 17.0002C11.9997 16.4698 11.789 15.9611 11.4139 15.586C11.0389 15.2109 10.5302 15.0002 9.99973 15.0002Z" fill="#111315"/>
</g>
<defs>
<clipPath id="clip0_1184_45165">
<rect width="64" height="64" fill="white"/>
</clipPath>
</defs>
</svg>
