<svg width="20" height="20" viewBox="0 0 20 20" fill="none" xmlns="http://www.w3.org/2000/svg">
<path d="M20 10.2224C20 9.40034 19.932 8.79987 19.7845 8.17773H10.2041V11.8889H15.8274C15.7143 12.8113 15.1016 14.2 13.7411 15.1337L13.7222 15.2581L16.7513 17.558L16.961 17.5789C18.8884 15.8337 20 13.2664 20 10.2224Z" fill="#4285F4"/>
<path d="M10.2031 20C12.9578 20 15.271 19.1114 16.96 17.5781L13.74 15.1337C12.8783 15.7229 11.7217 16.1339 10.2031 16.1339C7.50488 16.1339 5.21462 14.3895 4.39795 11.978L4.27836 11.9877L1.12885 14.3767L1.08789 14.4891C2.76545 17.7555 6.21231 20 10.2031 20Z" fill="#34A853"/>
<path d="M4.39868 11.9781C4.18325 11.356 4.05874 10.6889 4.05874 10.0001C4.05874 9.31133 4.18325 8.64423 4.38721 8.02209L4.38147 7.88964L1.19264 5.46289L1.08861 5.51186C0.396454 6.86692 0 8.38896 0 10.0001C0 11.6112 0.396454 13.1333 1.08861 14.4891L4.39868 11.9781Z" fill="#FBBC05"/>
<path d="M10.2031 3.8669C12.119 3.8669 13.4116 4.67769 14.1488 5.35602L17.0288 2.60014C15.2595 0.989002 12.9578 0 10.2031 0C6.21231 0 2.76545 2.24452 1.08789 5.51096L4.38731 8.02199C5.21462 5.6113 7.50488 3.8669 10.2031 3.8669Z" fill="#EB4335"/>
</svg>
