<svg width="18" height="22" viewBox="0 0 18 22" fill="none" xmlns="http://www.w3.org/2000/svg">
<path d="M17 12.5V2C17 1.73478 16.8946 1.48043 16.7071 1.29289C16.5196 1.10536 16.2652 1 16 1H2C1.73478 1 1.48043 1.10536 1.29289 1.29289C1.10536 1.48043 1 1.73478 1 2V20C1 20.2652 1.10536 20.5196 1.29289 20.7071C1.48043 20.8946 1.73478 21 2 21H7.5M5.5 5H12.5M5.5 9H12.5M5.5 13H8.5" stroke="#888FA2" stroke-width="2" stroke-linecap="round" stroke-linejoin="round"/>
<path d="M16.5001 21L14.7676 19.2675M14.7676 19.2675C15.0045 19.0364 15.1933 18.7606 15.3228 18.4561C15.4523 18.1515 15.5201 17.8242 15.5222 17.4933C15.5242 17.1623 15.4606 16.8342 15.3349 16.5281C15.2092 16.2219 15.0239 15.9437 14.7899 15.7097C14.5558 15.4757 14.2776 15.2905 13.9714 15.1648C13.6653 15.0391 13.3372 14.9755 13.0062 14.9777C12.6752 14.9798 12.348 15.0476 12.0434 15.1772C11.7389 15.3067 11.4631 15.4955 11.2321 15.7325C10.7667 16.2021 10.5063 16.8369 10.5078 17.4981C10.5094 18.1592 10.7727 18.7928 11.2403 19.2603C11.7079 19.7277 12.3416 19.9909 13.0027 19.9923C13.6638 19.9936 14.2986 19.733 14.7681 19.2675H14.7676Z" stroke="#888FA2" stroke-width="2" stroke-linecap="round" stroke-linejoin="round"/>
</svg>
