<svg width="20" height="20" viewBox="0 0 20 20" fill="none" xmlns="http://www.w3.org/2000/svg">
<path d="M7.4987 8.33335H8.33203C8.55304 8.33335 8.76501 8.24556 8.92129 8.08928C9.07757 7.933 9.16536 7.72103 9.16536 7.50002C9.16536 7.27901 9.07757 7.06705 8.92129 6.91076C8.76501 6.75448 8.55304 6.66669 8.33203 6.66669H7.4987C7.27768 6.66669 7.06572 6.75448 6.90944 6.91076C6.75316 7.06705 6.66536 7.27901 6.66536 7.50002C6.66536 7.72103 6.75316 7.933 6.90944 8.08928C7.06572 8.24556 7.27768 8.33335 7.4987 8.33335ZM7.4987 10C7.27768 10 7.06572 10.0878 6.90944 10.2441C6.75316 10.4004 6.66536 10.6123 6.66536 10.8334C6.66536 11.0544 6.75316 11.2663 6.90944 11.4226C7.06572 11.5789 7.27768 11.6667 7.4987 11.6667H12.4987C12.7197 11.6667 12.9317 11.5789 13.088 11.4226C13.2442 11.2663 13.332 11.0544 13.332 10.8334C13.332 10.6123 13.2442 10.4004 13.088 10.2441C12.9317 10.0878 12.7197 10 12.4987 10H7.4987ZM16.6654 7.45002C16.6567 7.37347 16.6399 7.29805 16.6154 7.22502V7.15002C16.5753 7.06434 16.5219 6.98557 16.457 6.91669L11.457 1.91669C11.3881 1.85187 11.3094 1.79842 11.2237 1.75835C11.1988 1.75482 11.1736 1.75482 11.1487 1.75835C11.064 1.7098 10.9706 1.67864 10.8737 1.66669H5.83203C5.16899 1.66669 4.53311 1.93008 4.06426 2.39892C3.59542 2.86776 3.33203 3.50365 3.33203 4.16669V15.8334C3.33203 16.4964 3.59542 17.1323 4.06426 17.6011C4.53311 18.07 5.16899 18.3334 5.83203 18.3334H14.1654C14.8284 18.3334 15.4643 18.07 15.9331 17.6011C16.402 17.1323 16.6654 16.4964 16.6654 15.8334V7.45002ZM11.6654 4.50835L13.8237 6.66669H12.4987C12.2777 6.66669 12.0657 6.57889 11.9094 6.42261C11.7532 6.26633 11.6654 6.05437 11.6654 5.83335V4.50835ZM14.9987 15.8334C14.9987 16.0544 14.9109 16.2663 14.7546 16.4226C14.5983 16.5789 14.3864 16.6667 14.1654 16.6667H5.83203C5.61102 16.6667 5.39906 16.5789 5.24278 16.4226C5.0865 16.2663 4.9987 16.0544 4.9987 15.8334V4.16669C4.9987 3.94567 5.0865 3.73371 5.24278 3.57743C5.39906 3.42115 5.61102 3.33335 5.83203 3.33335H9.9987V5.83335C9.9987 6.49639 10.2621 7.13228 10.7309 7.60112C11.1998 8.06996 11.8357 8.33335 12.4987 8.33335H14.9987V15.8334ZM12.4987 13.3334H7.4987C7.27768 13.3334 7.06572 13.4212 6.90944 13.5774C6.75316 13.7337 6.66536 13.9457 6.66536 14.1667C6.66536 14.3877 6.75316 14.5997 6.90944 14.7559C7.06572 14.9122 7.27768 15 7.4987 15H12.4987C12.7197 15 12.9317 14.9122 13.088 14.7559C13.2442 14.5997 13.332 14.3877 13.332 14.1667C13.332 13.9457 13.2442 13.7337 13.088 13.5774C12.9317 13.4212 12.7197 13.3334 12.4987 13.3334Z" fill="#888FA2"/>
</svg>
