<svg width="72" height="72" viewBox="0 0 72 72" fill="none" xmlns="http://www.w3.org/2000/svg">
<path d="M49.59 33.48C53.28 32.7 56.79 32.94 60 33.9V30C60 28.11 59.1 26.34 57.6 25.2L39.6 11.7C38.5595 10.9257 37.297 10.5074 36 10.5074C34.703 10.5074 33.4405 10.9257 32.4 11.7L14.4 25.2C12.9 26.34 12 28.11 12 30V57C12 60.3 14.7 63 18 63H35.04C33.0889 58.9442 32.5098 54.3638 33.39 49.95C34.95 41.79 41.46 35.22 49.59 33.48V33.48Z" fill="#FD7B5C"/>
<path d="M54 39C45.72 39 39 45.72 39 54C39 62.28 45.72 69 54 69C62.28 69 69 62.28 69 54C69 45.72 62.28 39 54 39ZM63 55.5H55.5V63H52.5V55.5H45V52.5H52.5V45H55.5V52.5H63V55.5Z" fill="#FD7B5C"/>
</svg>
