<svg width="18" height="14" viewBox="0 0 18 14" fill="none" xmlns="http://www.w3.org/2000/svg">
<path d="M14.8337 0.333984H3.16699C2.50395 0.333984 1.86807 0.597377 1.39923 1.06622C0.930384 1.53506 0.666992 2.17094 0.666992 2.83398V11.1673C0.666992 11.8304 0.930384 12.4662 1.39923 12.9351C1.86807 13.4039 2.50395 13.6673 3.16699 13.6673H14.8337C15.4967 13.6673 16.1326 13.4039 16.6014 12.9351C17.0703 12.4662 17.3337 11.8304 17.3337 11.1673V2.83398C17.3337 2.17094 17.0703 1.53506 16.6014 1.06622C16.1326 0.597377 15.4967 0.333984 14.8337 0.333984ZM14.492 2.00065L9.59199 6.90065C9.51452 6.97876 9.42236 7.04075 9.32081 7.08306C9.21926 7.12537 9.11034 7.14715 9.00033 7.14715C8.89032 7.14715 8.78139 7.12537 8.67984 7.08306C8.5783 7.04075 8.48613 6.97876 8.40866 6.90065L3.50866 2.00065H14.492ZM15.667 11.1673C15.667 11.3883 15.5792 11.6003 15.4229 11.7566C15.2666 11.9129 15.0547 12.0007 14.8337 12.0007H3.16699C2.94598 12.0007 2.73402 11.9129 2.57774 11.7566C2.42146 11.6003 2.33366 11.3883 2.33366 11.1673V3.17565L7.23366 8.07565C7.70241 8.54382 8.33782 8.80678 9.00033 8.80678C9.66283 8.80678 10.2982 8.54382 10.767 8.07565L15.667 3.17565V11.1673Z" fill="#888FA2"/>
</svg>
