<svg width="24" height="24" viewBox="0 0 24 24" fill="none" xmlns="http://www.w3.org/2000/svg">
<path d="M19.4773 14.84L15.2343 19.083L9.01027 12.86C7.81732 13.1792 6.55496 13.1226 5.39534 12.698C4.23572 12.2734 3.2353 11.5014 2.53052 10.4874C1.82573 9.47335 1.45089 8.2666 1.45711 7.03171C1.46333 5.79681 1.85031 4.5939 2.56527 3.58701L6.10027 7.12001C6.28778 7.30765 6.54215 7.41312 6.80742 7.41321C7.07269 7.4133 7.32713 7.30802 7.51477 7.12051C7.70241 6.933 7.80788 6.67863 7.80797 6.41336C7.80807 6.14809 7.70278 5.89365 7.51527 5.70601L3.97927 2.17001C4.98616 1.45504 6.18908 1.06806 7.42397 1.06184C8.65886 1.05562 9.86562 1.43047 10.8797 2.13525C11.8937 2.84004 12.6657 3.84046 13.0903 5.00008C13.5149 6.15969 13.5714 7.42206 13.2523 8.61501L19.4773 14.84ZM20.8913 16.255L21.5983 16.962C22.1609 17.5247 22.477 18.2878 22.477 19.0835C22.477 19.8792 22.1609 20.6424 21.5983 21.205C21.0356 21.7677 20.2725 22.0838 19.4768 22.0838C18.6811 22.0838 17.9179 21.7677 17.3553 21.205L16.6483 20.497L20.8913 16.255Z" fill="white" fill-opacity="0.56"/>
</svg>
