<svg width="47" height="46" viewBox="0 0 47 46" fill="none" xmlns="http://www.w3.org/2000/svg">
<path d="M44.5827 34.4999H38.8327V28.7499H34.9993V34.4999H29.2493V38.3333H34.9993V44.0833H38.8327V38.3333H44.5827M11.9993 3.83325C10.9827 3.83325 10.0077 4.23712 9.28877 4.95601C8.56988 5.6749 8.16602 6.64992 8.16602 7.66659V38.3333C8.16602 40.4608 9.87185 42.1666 11.9993 42.1666H26.9685C26.2785 40.9783 25.7993 39.6749 25.5693 38.3333H11.9993V7.66659H25.416V17.2499H34.9993V25.0699C35.6318 24.9741 36.2835 24.9166 36.916 24.9166C37.5677 24.9166 38.2002 24.9741 38.8327 25.0699V15.3333L27.3327 3.83325M15.8327 22.9999V26.8333H31.166V22.9999M15.8327 30.6666V34.4999H25.416V30.6666H15.8327Z" fill="#FD7B5C"/>
</svg>
