<svg width="46" height="46" viewBox="0 0 46 46" fill="none" xmlns="http://www.w3.org/2000/svg">
<path d="M5.75 11.5H40.25V34.5H5.75V11.5ZM23 17.25C24.525 17.25 25.9875 17.8558 27.0659 18.9341C28.1442 20.0125 28.75 21.475 28.75 23C28.75 24.525 28.1442 25.9875 27.0659 27.0659C25.9875 28.1442 24.525 28.75 23 28.75C21.475 28.75 20.0125 28.1442 18.9341 27.0659C17.8558 25.9875 17.25 24.525 17.25 23C17.25 21.475 17.8558 20.0125 18.9341 18.9341C20.0125 17.8558 21.475 17.25 23 17.25M13.4167 15.3333C13.4167 16.35 13.0128 17.325 12.2939 18.0439C11.575 18.7628 10.6 19.1667 9.58333 19.1667V26.8333C10.6 26.8333 11.575 27.2372 12.2939 27.9561C13.0128 28.675 13.4167 29.65 13.4167 30.6667H32.5833C32.5833 29.65 32.9872 28.675 33.7061 27.9561C34.425 27.2372 35.4 26.8333 36.4167 26.8333V19.1667C35.4 19.1667 34.425 18.7628 33.7061 18.0439C32.9872 17.325 32.5833 16.35 32.5833 15.3333H13.4167Z" fill="#FD7B5C"/>
</svg>
