<svg width="20" height="18" viewBox="0 0 20 18" fill="none" xmlns="http://www.w3.org/2000/svg">
<path d="M9.84766 5.83248L12.7106 8.69547L12.7243 8.5455C12.7243 7.04128 11.5018 5.81885 9.99762 5.81885L9.84766 5.83248Z" fill="#888FA2"/>
<path d="M9.99783 4.0012C12.5063 4.0012 14.5423 6.03712 14.5423 8.54564C14.5423 9.13187 14.4241 9.69083 14.2196 10.2043L16.8781 12.8628C18.2505 11.7176 19.3321 10.2362 20.0001 8.54564C18.4232 4.55565 14.5468 1.729 9.99787 1.729C8.72542 1.729 7.50754 1.95621 6.37598 2.36521L8.33917 4.32384C8.85263 4.1239 9.4116 4.0012 9.99783 4.0012Z" fill="#888FA2"/>
<path d="M0.90887 1.52455L2.98113 3.59681L3.39468 4.01036C1.89502 5.18282 0.70893 6.74158 0 8.54568C1.57238 12.5357 5.45331 15.3623 9.99774 15.3623C11.4065 15.3623 12.7517 15.0897 13.9832 14.5943L14.3695 14.9806L17.0189 17.6345L18.1777 16.4802L2.0677 0.365723L0.90887 1.52455ZM5.93503 6.54615L7.33925 7.95038C7.29836 8.1458 7.27109 8.34118 7.27109 8.54568C7.27109 10.0499 8.49352 11.2723 9.99774 11.2723C10.2022 11.2723 10.3977 11.2451 10.5885 11.2042L11.9928 12.6084C11.3883 12.9083 10.7158 13.0901 9.99774 13.0901C7.48922 13.0901 5.45331 11.0542 5.45331 8.54568C5.45331 7.82768 5.6351 7.15509 5.93503 6.54615Z" fill="#888FA2"/>
</svg>
