<svg width="18" height="18" viewBox="0 0 18 18" fill="none" xmlns="http://www.w3.org/2000/svg">
<path d="M15.1998 9.83379C15.0165 9.83379 14.8248 9.77546 14.6415 9.73379C14.2702 9.65198 13.9054 9.54336 13.5498 9.40879C13.1632 9.26815 12.7383 9.27546 12.3568 9.4293C11.9752 9.58314 11.6641 9.87266 11.4832 10.2421L11.2998 10.6171C10.4882 10.1656 9.74233 9.60482 9.08317 8.95046C8.42881 8.29131 7.86803 7.54546 7.41651 6.73379L7.76651 6.50046C8.13598 6.31956 8.42549 6.0084 8.57933 5.62687C8.73318 5.24534 8.74048 4.82039 8.59984 4.43379C8.46753 4.07748 8.35895 3.71279 8.27484 3.34213C8.23317 3.15879 8.19984 2.96713 8.17484 2.77546C8.07364 2.18848 7.76619 1.65691 7.30786 1.27649C6.84952 0.896074 6.27042 0.6918 5.67484 0.70046H3.17484C2.8157 0.697088 2.46005 0.771138 2.1321 0.917568C1.80415 1.064 1.5116 1.27937 1.27437 1.54903C1.03713 1.81868 0.860785 2.13629 0.75733 2.48022C0.653874 2.82416 0.625739 3.18634 0.67484 3.54213C1.11879 7.03328 2.7132 10.277 5.20622 12.761C7.69924 15.245 10.9488 16.8276 14.4415 17.2588H14.7582C15.3727 17.2597 15.966 17.0342 16.4248 16.6255C16.6885 16.3897 16.8991 16.1006 17.0427 15.7774C17.1864 15.4542 17.2598 15.1042 17.2582 14.7505V12.2505C17.248 11.6716 17.0372 11.1143 16.6618 10.6735C16.2864 10.2328 15.7697 9.93598 15.1998 9.83379ZM15.6165 14.8338C15.6164 14.9521 15.591 15.069 15.5422 15.1768C15.4933 15.2846 15.4221 15.3807 15.3332 15.4588C15.2401 15.5392 15.1312 15.5992 15.0135 15.6351C14.8958 15.671 14.772 15.6819 14.6498 15.6671C11.5289 15.267 8.63004 13.8392 6.41044 11.609C4.19084 9.37887 2.77685 6.47324 2.39151 3.35046C2.37824 3.22839 2.38987 3.1049 2.42567 2.98745C2.46148 2.87 2.52073 2.76103 2.59984 2.66713C2.67793 2.57824 2.77406 2.50699 2.88182 2.45814C2.98959 2.40929 3.10652 2.38394 3.22484 2.38379H5.72484C5.91863 2.37948 6.10786 2.44286 6.25996 2.56302C6.41206 2.68318 6.51751 2.8526 6.55817 3.04213C6.59151 3.2699 6.63317 3.4949 6.68317 3.71713C6.77944 4.15641 6.90756 4.58811 7.06651 5.00879L5.89984 5.55046C5.80009 5.59623 5.71036 5.66125 5.6358 5.74179C5.56125 5.82233 5.50334 5.91681 5.4654 6.01979C5.42746 6.12277 5.41023 6.23224 5.41471 6.34189C5.41919 6.45155 5.44529 6.55925 5.49151 6.65879C6.69084 9.22776 8.75588 11.2928 11.3248 12.4921C11.5277 12.5755 11.7553 12.5755 11.9582 12.4921C12.0621 12.455 12.1576 12.3975 12.2391 12.3231C12.3207 12.2487 12.3866 12.1589 12.4332 12.0588L12.9498 10.8921C13.3806 11.0462 13.8203 11.1742 14.2665 11.2755C14.4887 11.3255 14.7137 11.3671 14.9415 11.4005C15.131 11.4411 15.3005 11.5466 15.4206 11.6987C15.5408 11.8508 15.6042 12.04 15.5998 12.2338L15.6165 14.8338Z" fill="#888FA2"/>
</svg>
