<svg width="20" height="20" viewBox="0 0 20 20" fill="none" xmlns="http://www.w3.org/2000/svg">
<path d="M16.624 5.55556H15.4V3.77778C15.4195 3.32651 15.2571 2.886 14.9484 2.55277C14.6397 2.21953 14.2098 2.02076 13.753 2H6.24701C5.79017 2.02076 5.36029 2.21953 5.05157 2.55277C4.74285 2.886 4.58047 3.32651 4.60001 3.77778V5.55556H3.37601C2.74265 5.56025 2.13698 5.81266 1.69165 6.25749C1.24632 6.70232 0.997618 7.30333 1.00002 7.92889V13.8489C0.997618 14.4744 1.24632 15.0755 1.69165 15.5203C2.13698 15.9651 2.74265 16.2175 3.37601 16.2222H4.15001C4.15001 16.6937 4.33965 17.1459 4.67722 17.4793C5.01478 17.8127 5.47262 18 5.95001 18H14.05C14.5274 18 14.9852 17.8127 15.3228 17.4793C15.6603 17.1459 15.85 16.6937 15.85 16.2222H16.624C17.2574 16.2175 17.863 15.9651 18.3084 15.5203C18.7537 15.0755 19.0024 14.4744 19 13.8489V7.92889C19.0024 7.30333 18.7537 6.70232 18.3084 6.25749C17.863 5.81266 17.2574 5.56025 16.624 5.55556ZM6.40001 3.77778H13.6V5.55556H6.40001V3.77778ZM5.95001 16.2222V12.6667H14.05V16.2222H5.95001ZM17.2 13.8489C17.2024 14.003 17.1434 14.1518 17.0356 14.2633C16.9278 14.3747 16.78 14.4398 16.624 14.4444H15.85V12.6667C15.85 12.1952 15.6603 11.743 15.3228 11.4096C14.9852 11.0762 14.5274 10.8889 14.05 10.8889H5.95001C5.47262 10.8889 5.01478 11.0762 4.67722 11.4096C4.33965 11.743 4.15001 12.1952 4.15001 12.6667V14.4444H3.37601C3.22005 14.4398 3.07219 14.3747 2.96441 14.2633C2.85663 14.1518 2.79758 14.003 2.80001 13.8489V7.92889C2.79758 7.7748 2.85663 7.62594 2.96441 7.5145C3.07219 7.40306 3.22005 7.33798 3.37601 7.33333H16.624C16.78 7.33798 16.9278 7.40306 17.0356 7.5145C17.1434 7.62594 17.2024 7.7748 17.2 7.92889V13.8489Z" fill="#888FA2"/>
</svg>
