<svg width="20" height="20" viewBox="0 0 20 20" fill="none" xmlns="http://www.w3.org/2000/svg">
<path d="M2.85 7.55463L2.85 7.55405C2.84999 7.54243 2.85262 7.53159 2.85695 7.52253C2.86126 7.51354 2.86675 7.50728 2.87174 7.50332L9.98279 1.85688L9.98285 1.85683C9.98986 1.85126 9.99594 1.85 10 1.85C10.0041 1.85 10.0101 1.85126 10.0171 1.85683L10.0172 1.85688L17.1283 7.50332C17.1333 7.50728 17.1387 7.51354 17.143 7.52253L17.8707 7.17429L17.143 7.52254C17.1474 7.53158 17.15 7.54242 17.15 7.55405V7.55463V17.0925C17.15 17.1134 17.1417 17.1299 17.1324 17.1394C17.1237 17.1483 17.1157 17.15 17.1111 17.15H2.88889C2.88433 17.15 2.8763 17.1483 2.86758 17.1394C2.85829 17.1299 2.85 17.1134 2.85 17.0925L2.85 7.55463ZM9.11111 9.88997H8.26111V10.74V16.185V17.035H9.11111H10.8889H11.7389V16.185V10.74V9.88997H10.8889H9.11111Z" stroke="#888FA2" stroke-width="1.7"/>
</svg>
