<svg width="91" height="24" viewBox="0 0 91 24" fill="none" xmlns="http://www.w3.org/2000/svg">
<path fill-rule="evenodd" clip-rule="evenodd" d="M32 5.52698V20.1363H35.2327V14.0646H41.9261V20.1363H45.1795V5.52698H41.9261V11.3914H35.2327V5.52698H32ZM53.6684 20.1363C54.7874 20.1363 55.8028 19.8807 56.7146 19.3695C57.6263 18.8584 58.3516 18.1607 58.8904 17.2766C59.443 16.3786 59.7193 15.3632 59.7193 14.2304C59.7193 13.0837 59.443 12.0683 58.8904 11.1842C58.3516 10.3 57.6263 9.60235 56.7146 9.09119C55.8028 8.58004 54.7874 8.32446 53.6684 8.32446C52.5493 8.32446 51.527 8.58004 50.6014 9.09119C49.6896 9.60235 48.9575 10.3 48.4049 11.1842C47.8661 12.0683 47.5967 13.0837 47.5967 14.2304C47.5967 15.3632 47.8661 16.3786 48.4049 17.2766C48.9575 18.1607 49.6896 18.8584 50.6014 19.3695C51.527 19.8807 52.5493 20.1363 53.6684 20.1363ZM53.6684 17.3387C52.8256 17.3387 52.1349 17.0486 51.5961 16.4684C51.0711 15.8882 50.8087 15.1421 50.8087 14.2304C50.8087 13.3324 51.0711 12.5933 51.5961 12.0131C52.1349 11.419 52.8256 11.122 53.6684 11.122C54.5111 11.122 55.1949 11.419 55.7199 12.0131C56.2448 12.5933 56.5073 13.3324 56.5073 14.2304C56.5073 15.1421 56.2448 15.8882 55.7199 16.4684C55.1949 17.0486 54.5111 17.3387 53.6684 17.3387ZM66.5861 20.1363C67.7465 20.1363 68.7619 19.8876 69.6322 19.3902C70.5026 18.8791 71.1105 18.2091 71.4558 17.3802L68.9691 16.199C68.7481 16.5858 68.4373 16.8897 68.0366 17.1108C67.6498 17.3318 67.1801 17.4423 66.6275 17.4423C65.8677 17.4423 65.246 17.2282 64.7625 16.7999C64.279 16.3717 63.9957 15.8053 63.9129 15.1007H71.8288C71.8841 14.9487 71.9186 14.7691 71.9324 14.5619C71.9601 14.3409 71.9739 14.1198 71.9739 13.8988C71.9739 12.8489 71.7528 11.9094 71.3108 11.0805C70.8825 10.2378 70.2539 9.56781 69.425 9.07047C68.5961 8.57313 67.5807 8.32446 66.3788 8.32446C65.3013 8.32446 64.3342 8.58004 63.4777 9.09119C62.6212 9.60235 61.9373 10.3 61.4262 11.1842C60.9288 12.0683 60.6802 13.0768 60.6802 14.2096C60.6802 15.301 60.9219 16.2957 61.4054 17.1937C61.889 18.0916 62.5728 18.81 63.457 19.3488C64.3411 19.8738 65.3841 20.1363 66.5861 20.1363ZM66.3788 10.8112C67.0143 10.8112 67.5393 10.9977 67.9537 11.3707C68.3682 11.7437 68.6099 12.2272 68.679 12.8212H63.975C64.127 12.1719 64.4102 11.6746 64.8246 11.3292C65.2529 10.9838 65.771 10.8112 66.3788 10.8112ZM76.4982 19.8876H73.3898V8.57313H76.291V9.96154C76.5811 9.40894 77.0024 9.0014 77.555 8.73891C78.1076 8.46261 78.7431 8.32446 79.4615 8.32446C80.2075 8.32446 80.8844 8.48334 81.4923 8.80108C82.114 9.10501 82.5837 9.52636 82.9014 10.0651C83.302 9.4711 83.7994 9.03593 84.3934 8.75963C85.0013 8.46952 85.6713 8.32446 86.4035 8.32446C87.2186 8.32446 87.937 8.50406 88.5586 8.86325C89.1941 9.22244 89.6915 9.72668 90.0507 10.376C90.4099 11.0115 90.5894 11.7575 90.5894 12.614V19.8876H87.4811V13.2771C87.4811 12.6278 87.3015 12.1098 86.9423 11.7229C86.5969 11.3223 86.1203 11.122 85.5124 11.122C84.9046 11.122 84.4211 11.3223 84.0619 11.7229C83.7165 12.1098 83.5438 12.6278 83.5438 13.2771V19.8876H80.4354V13.2771C80.4354 12.6278 80.2558 12.1098 79.8967 11.7229C79.5513 11.3223 79.0747 11.122 78.4668 11.122C77.859 11.122 77.3754 11.3223 77.0162 11.7229C76.6709 12.1098 76.4982 12.6278 76.4982 13.2771V19.8876Z" fill="white"/>
<rect x="5" y="10" width="13" height="10" fill="white"/>
<path d="M2.09973 14.1936H4.29976V21.8992C4.29976 22.1912 4.41565 22.4711 4.62194 22.6776C4.82824 22.884 5.10803 23 5.39977 23H18.6C18.8917 23 19.1715 22.884 19.3778 22.6776C19.5841 22.4711 19.7 22.1912 19.7 21.8992V14.1936H21.9C22.1126 14.1938 22.3207 14.1322 22.4989 14.0163C22.6772 13.9005 22.818 13.7353 22.9043 13.5408C22.9912 13.3465 23.0197 13.1311 22.9865 12.9208C22.9533 12.7105 22.8598 12.5145 22.7173 12.3564L12.8172 1.3484C12.4003 0.883866 11.5995 0.883866 11.1826 1.3484L1.28242 12.3564C1.14017 12.5145 1.04678 12.7105 1.01353 12.9207C0.980285 13.1308 1.00861 13.3461 1.09508 13.5405C1.18155 13.7349 1.32246 13.9 1.50076 14.0159C1.67906 14.1318 1.88711 14.1936 2.09973 14.1936V14.1936ZM8.64372 13.8458C8.67782 13.9503 9.53803 16.3952 11.9999 16.3952C14.4958 16.3952 15.3461 13.8777 15.3549 13.8513L17.4449 14.5349C17.391 14.7011 16.0732 18.5968 11.9999 18.5968C7.92651 18.5968 6.60869 14.7011 6.55479 14.536L8.64372 13.8458Z" fill="url(#paint0_linear_1320_31084)"/>
<path d="M4 4.5C4 3.67157 4.67157 3 5.5 3V3C6.32843 3 7 3.67157 7 4.5V11H4V4.5Z" fill="#FE7C5D"/>
<defs>
<linearGradient id="paint0_linear_1320_31084" x1="12" y1="14.1936" x2="3.18809" y2="46.664" gradientUnits="userSpaceOnUse">
<stop stop-color="#FD7B5C"/>
<stop offset="1" stop-color="#111315"/>
</linearGradient>
</defs>
</svg>
