<svg width="32" height="32" viewBox="0 0 32 32" fill="none" xmlns="http://www.w3.org/2000/svg">
<path d="M16.0004 2.6665C13.4144 2.67142 10.8856 3.42825 8.72203 4.84482C6.55849 6.26139 4.85359 8.27656 3.81498 10.6449C2.77637 13.0132 2.44889 15.6324 2.87243 18.1835C3.29596 20.7346 4.45223 23.1075 6.20039 25.0132C7.44895 26.3666 8.96431 27.4467 10.651 28.1854C12.3376 28.9242 14.159 29.3056 16.0004 29.3056C17.8417 29.3056 19.6631 28.9242 21.3498 28.1854C23.0365 27.4467 24.5518 26.3666 25.8004 25.0132C27.5486 23.1075 28.7048 20.7346 29.1284 18.1835C29.5519 15.6324 29.2244 13.0132 28.1858 10.6449C27.1472 8.27656 25.4423 6.26139 23.2787 4.84482C21.1152 3.42825 18.5864 2.67142 16.0004 2.6665ZM16.0004 26.6665C13.2383 26.6623 10.5856 25.5869 8.60039 23.6665C9.20311 22.1992 10.2284 20.9442 11.5461 20.061C12.8637 19.1778 14.4141 18.7062 16.0004 18.7062C17.5866 18.7062 19.1371 19.1778 20.4547 20.061C21.7723 20.9442 22.7977 22.1992 23.4004 23.6665C21.4152 25.5869 18.7624 26.6623 16.0004 26.6665ZM13.3337 13.3332C13.3337 12.8058 13.4901 12.2902 13.7831 11.8517C14.0762 11.4131 14.4926 11.0713 14.9799 10.8695C15.4672 10.6677 16.0033 10.6148 16.5206 10.7177C17.0379 10.8206 17.5131 11.0746 17.886 11.4476C18.2589 11.8205 18.5129 12.2956 18.6158 12.8129C18.7187 13.3302 18.6659 13.8664 18.4641 14.3537C18.2622 14.8409 17.9204 15.2574 17.4819 15.5504C17.0434 15.8434 16.5278 15.9998 16.0004 15.9998C15.2931 15.9998 14.6149 15.7189 14.1148 15.2188C13.6147 14.7187 13.3337 14.0404 13.3337 13.3332ZM25.2137 21.3332C24.0224 19.2955 22.1889 17.7105 20.0004 16.8265C20.6793 16.0567 21.1216 15.1074 21.2744 14.0924C21.4271 13.0775 21.2837 12.04 20.8614 11.1045C20.4391 10.169 19.7558 9.37525 18.8936 8.81846C18.0314 8.26167 17.0268 7.9655 16.0004 7.9655C14.974 7.9655 13.9694 8.26167 13.1072 8.81846C12.2449 9.37525 11.5617 10.169 11.1394 11.1045C10.7171 12.04 10.5737 13.0775 10.7264 14.0924C10.8792 15.1074 11.3215 16.0567 12.0004 16.8265C9.81185 17.7105 7.97835 19.2955 6.78706 21.3332C5.83765 19.716 5.33602 17.8751 5.33372 15.9998C5.33372 13.1709 6.45753 10.4578 8.45792 8.45737C10.4583 6.45698 13.1714 5.33317 16.0004 5.33317C18.8294 5.33317 21.5425 6.45698 23.5429 8.45737C25.5432 10.4578 26.6671 13.1709 26.6671 15.9998C26.6648 17.8751 26.1631 19.716 25.2137 21.3332Z" fill="#888FA2"/>
</svg>
