<svg width="32" height="32" viewBox="0 0 32 32" fill="none" xmlns="http://www.w3.org/2000/svg">
<path d="M28.8849 13.6695L16.8849 3.00282C16.6411 2.78587 16.326 2.66602 15.9996 2.66602C15.6732 2.66602 15.3582 2.78587 15.1143 3.00282L3.11428 13.6695C2.84978 13.9043 2.68938 14.2346 2.66837 14.5876C2.64737 14.9407 2.76748 15.2876 3.00228 15.5522C3.23709 15.8167 3.56735 15.9771 3.92042 15.9981C4.27349 16.0191 4.62044 15.899 4.88495 15.6642L5.33295 15.2655V28.0002C5.33295 28.3538 5.47343 28.6929 5.72348 28.943C5.97352 29.193 6.31266 29.3335 6.66628 29.3335H25.333C25.6866 29.3335 26.0257 29.193 26.2758 28.943C26.5258 28.6929 26.6663 28.3538 26.6663 28.0002V15.2655L27.1143 15.6642C27.3788 15.899 27.7257 16.0191 28.0788 15.9981C28.2536 15.9877 28.4247 15.9429 28.5822 15.8664C28.7398 15.7899 28.8807 15.6831 28.9969 15.5522C29.1132 15.4212 29.2025 15.2686 29.2598 15.1031C29.3171 14.9376 29.3413 14.7624 29.3309 14.5876C29.3205 14.4128 29.2757 14.2417 29.1992 14.0842C29.1227 13.9267 29.0159 13.7858 28.8849 13.6695V13.6695ZM12.245 26.6668C12.5165 25.8874 13.0238 25.2119 13.6966 24.7338C14.3694 24.2557 15.1743 23.9989 15.9996 23.9989C16.825 23.9989 17.6298 24.2557 18.3026 24.7338C18.9754 25.2119 19.4828 25.8874 19.7543 26.6668H12.245ZM13.9996 19.3335C13.9996 18.9379 14.1169 18.5512 14.3367 18.2224C14.5564 17.8935 14.8688 17.6371 15.2342 17.4857C15.5997 17.3344 16.0018 17.2947 16.3898 17.3719C16.7778 17.4491 17.1341 17.6396 17.4138 17.9193C17.6935 18.199 17.884 18.5553 17.9612 18.9433C18.0384 19.3313 17.9988 19.7334 17.8474 20.0989C17.696 20.4643 17.4397 20.7767 17.1108 20.9964C16.7819 21.2162 16.3952 21.3335 15.9996 21.3335C15.4694 21.3328 14.9611 21.1218 14.5862 20.7469C14.2113 20.372 14.0003 19.8637 13.9996 19.3335V19.3335ZM23.9996 26.6668H22.5316C22.3472 25.7828 21.9852 24.9455 21.4674 24.2056C20.9497 23.4658 20.287 22.8388 19.5196 22.3628C20.2546 21.5243 20.6618 20.4485 20.6663 19.3335C20.6663 18.0958 20.1746 16.9088 19.2994 16.0337C18.4243 15.1585 17.2373 14.6668 15.9996 14.6668C14.7619 14.6668 13.575 15.1585 12.6998 16.0337C11.8246 16.9088 11.333 18.0958 11.333 19.3335C11.3374 20.4485 11.7447 21.5243 12.4796 22.3628C11.712 22.8387 11.0491 23.4656 10.5311 24.2055C10.0131 24.9453 9.65082 25.7827 9.46628 26.6668H7.99962V12.8948L15.9996 5.78416L23.9996 12.8948V26.6668Z" fill="#FD7B5C"/>
</svg>
