<svg width="32" height="30" viewBox="0 0 32 30" fill="none" xmlns="http://www.w3.org/2000/svg">
<path fill-rule="evenodd" clip-rule="evenodd" d="M15.0914 0.328697C15.6226 -0.109566 16.3774 -0.109566 16.9086 0.328697L31.454 12.3287C32.0813 12.8462 32.183 13.7901 31.6812 14.437C31.1794 15.0839 30.264 15.1888 29.6368 14.6713L28.3636 13.6209V28.1038H28.7066C29.7221 28.1038 30.5454 28.9527 30.5454 29.9999H26.9219C26.9176 30 26.9133 30 26.9091 30H5.09095C5.08666 30 5.08238 30 5.07811 29.9999H1.45454C1.45454 28.9527 2.27776 28.1038 3.29326 28.1038H3.6364V13.6209L2.36324 14.6713C1.73595 15.1888 0.820619 15.0839 0.318789 14.437C-0.183042 13.7901 -0.0813381 12.8462 0.54595 12.3287L15.0914 0.328697ZM12 28.1038H19.9999V22.125C19.9999 19.8468 18.2091 18 15.9999 18C13.7908 18 12 19.8468 12 22.125V28.1038ZM19.4994 9.375C19.4994 11.3681 17.9327 12.9837 16 12.9837C14.0674 12.9837 12.5007 11.3681 12.5007 9.375C12.5007 7.38195 14.0674 5.76627 16 5.76627C17.9327 5.76627 19.4994 7.38195 19.4994 9.375Z" fill="#FD7B5C"/>
</svg>
