<svg width="15" height="16" viewBox="0 0 15 16" fill="none" xmlns="http://www.w3.org/2000/svg">
<path d="M3.45281 6.30906L3.2625 6.24758C3.12687 6.66741 2.67718 6.89969 2.25536 6.76233L2.2546 6.76208C1.83479 6.62725 1.60369 6.17565 1.73967 5.75531L1.7397 5.75519C2.61958 3.02972 5.13359 1.2 8 1.2C10.1657 1.2 12.1276 2.24683 13.3375 3.93196L13.7 4.43677V3.81531V1.5C13.7 1.05773 14.0582 0.7 14.5 0.7C14.9426 0.7 15.3 1.0576 15.3 1.5V6C15.3 6.44227 14.9418 6.8 14.5 6.8H10.5C10.0582 6.8 9.7 6.44227 9.7 6C9.7 5.55773 10.0582 5.2 10.5 5.2H11.8875H12.2758L12.0503 4.88386C11.1342 3.59946 9.64402 2.8 8 2.8C5.83217 2.8 3.92694 4.18392 3.26244 6.24777L3.45281 6.30906ZM3.45281 6.30906C3.28344 6.83337 2.72125 7.12437 2.19344 6.9525L11.7368 4.8C10.8497 3.68477 9.49094 3 8 3C5.91875 3 4.09062 4.32812 3.45281 6.30906ZM13.7451 9.24041L13.745 9.24064L13.7545 9.24319C14.1588 9.35147 14.3951 9.81468 14.235 10.2351L14.2347 10.235L14.2315 10.2448C13.352 12.9703 10.8367 14.8 7.97188 14.8C5.83468 14.8 3.87267 13.7541 2.66248 12.0681L2.3 11.563V12.1847V14.5C2.3 14.9423 1.94181 15.3 1.5 15.3C1.05819 15.3 0.7 14.9423 0.7 14.5V10C0.7 9.55773 1.05819 9.2 1.5 9.2H5.5C5.94181 9.2 6.3 9.55773 6.3 10C6.3 10.4423 5.94181 10.8 5.5 10.8H4.1125H3.72409L3.9497 11.1162C4.86616 12.4005 6.35596 13.2 8 13.2C10.1678 13.2 12.073 11.8161 12.7372 9.75478C12.8727 9.33567 13.3213 9.10421 13.7451 9.24041Z" fill="#04AA6A" stroke="white" stroke-width="0.4"/>
</svg>
