<svg width="14" height="14" viewBox="0 0 14 14" fill="none" xmlns="http://www.w3.org/2000/svg">
<path d="M13.4102 5.87205L13.4103 5.87208C13.4708 5.92585 13.5202 5.99103 13.5556 6.06389C13.591 6.13675 13.6117 6.21587 13.6165 6.29672C13.6213 6.37758 13.6101 6.45859 13.5836 6.53513C13.5571 6.61167 13.5158 6.68225 13.4621 6.74282C13.4083 6.8034 13.3431 6.85279 13.2702 6.88818C13.1974 6.92356 13.1183 6.94425 13.0374 6.94906C12.8741 6.95878 12.7136 6.90322 12.5913 6.79462L12.3674 6.59533L12.2841 6.52126V6.63268V13C12.2841 13.1636 12.2191 13.3204 12.1035 13.4361C11.9879 13.5517 11.831 13.6167 11.6675 13.6167H2.33412C2.17057 13.6167 2.01372 13.5517 1.89807 13.4361C1.78242 13.3204 1.71745 13.1636 1.71745 13V6.63268V6.52126L1.63421 6.59533L1.41026 6.79462C1.28792 6.90322 1.12745 6.95878 0.964157 6.94906C0.80086 6.93935 0.64811 6.86516 0.539511 6.74282C0.430912 6.62049 0.375359 6.46002 0.385074 6.29672C0.394789 6.13343 0.468975 5.98068 0.591312 5.87208L0.591337 5.87205L6.59134 0.538721L6.59135 0.538708C6.70413 0.438375 6.84983 0.382947 7.00078 0.382947C7.15174 0.382947 7.29743 0.438375 7.41022 0.538707L7.41023 0.538721L13.4102 5.87205ZM5.07624 12.3169L5.05308 12.3834H5.12345H8.87812H8.94848L8.92533 12.3169C8.78616 11.9174 8.5261 11.5711 8.18125 11.3261C7.8364 11.081 7.42383 10.9494 7.00078 10.9494C6.57774 10.9494 6.16517 11.081 5.82032 11.3261C5.47547 11.5711 5.21541 11.9174 5.07624 12.3169ZM5.95078 8.66668V8.66675C5.95116 8.9451 6.06189 9.21194 6.25871 9.40876C6.45553 9.60558 6.72237 9.71631 7.00072 9.71668H7.00078C7.20846 9.71668 7.41146 9.6551 7.58413 9.53973C7.7568 9.42435 7.89139 9.26036 7.97086 9.0685C8.05033 8.87664 8.07112 8.66552 8.03061 8.46184C7.9901 8.25816 7.89009 8.07107 7.74325 7.92422C7.5964 7.77738 7.40931 7.67737 7.20563 7.63686C7.00195 7.59634 6.79083 7.61714 6.59897 7.69661C6.4071 7.77608 6.24312 7.91066 6.12774 8.08334C6.01237 8.25601 5.95078 8.45901 5.95078 8.66668ZM11.0008 12.3834H11.0508V12.3334V5.44735V5.4249L11.034 5.40998L7.034 1.85465L7.00078 1.82512L6.96757 1.85465L2.96757 5.40998L2.95079 5.4249V5.44735V12.3334V12.3834H3.00079H3.73412H3.77476L3.78306 12.3436C3.87395 11.9081 4.05236 11.4957 4.30747 11.1313C4.56259 10.767 4.88908 10.4582 5.26713 10.2238L5.31727 10.1928L5.27839 10.1484C4.91888 9.73824 4.71967 9.212 4.71745 8.6666C4.71747 8.06105 4.95804 7.48031 5.38623 7.05212C5.81443 6.62392 6.39521 6.38335 7.00078 6.38335C7.60636 6.38335 8.18714 6.62392 8.61535 7.05212C9.04355 7.48033 9.28412 8.06111 9.28412 8.66668C9.28188 9.21206 9.08267 9.73826 8.72318 10.1484L8.68431 10.1927L8.73443 10.2238C9.11236 10.4583 9.43873 10.767 9.69372 11.1314C9.94872 11.4958 10.127 11.9082 10.2178 12.3436L10.2261 12.3834H10.2668H11.0008Z" fill="#888FA2" stroke="white" stroke-width="0.1"/>
</svg>
